HIERARCHY
ROOT Hips
{
	OFFSET 0.000000 0.000000 0.000000
	CHANNELS 6 Xposition Yposition Zposition Xrotation Yrotation Zrotation
	JOINT LeftUpLeg_virtual
	{
		OFFSET 0.000000 0.000000 0.000000
		CHANNELS 3 Xrotation Yrotation Zrotation
		JOINT LeftUpLeg
		{
			OFFSET 13.026900 -6.336304 -1.092800
			CHANNELS 3 Xrotation Yrotation Zrotation
			JOINT LeftLeg
			{
				OFFSET 0.524474 -46.096886 9.782700
				CHANNELS 3 Xrotation Yrotation Zrotation
				JOINT LeftFoot
				{
					OFFSET -0.524474 -53.427422 -12.948200
					CHANNELS 3 Xrotation Yrotation Zrotation
					JOINT LeftToeBase
					{
						OFFSET 0.192200 -14.009700 16.364100
						CHANNELS 3 Xrotation Yrotation Zrotation
						JOINT LeftToe_End
						{
							OFFSET -1.784700 -0.561700 9.474800
							CHANNELS 3 Xrotation Yrotation Zrotation
							End Site
							{
								OFFSET 0 0 0
							}
						}
					}
				}
			}
		}
	}
	JOINT RightUpLeg_virtual
	{
		OFFSET 0.000000 0.000000 0.000000
		CHANNELS 3 Xrotation Yrotation Zrotation
		JOINT RightUpLeg
		{
			OFFSET -12.883000 -6.336304 -1.092800
			CHANNELS 3 Xrotation Yrotation Zrotation
			JOINT RightLeg
			{
				OFFSET -0.524587 -46.096825 9.782800
				CHANNELS 3 Xrotation Yrotation Zrotation
				JOINT RightFoot
				{
					OFFSET 0.524587 -53.427383 -12.948300
					CHANNELS 3 Xrotation Yrotation Zrotation
					JOINT RightToeBase
					{
						OFFSET -0.192200 -14.009700 16.364100
						CHANNELS 3 Xrotation Yrotation Zrotation
						JOINT RightToe_End
						{
							OFFSET 1.784700 -0.561700 9.474800
							CHANNELS 3 Xrotation Yrotation Zrotation
							End Site
							{
								OFFSET 0 0 0
							}
						}
					}
				}
			}
		}
	}
	JOINT Spine_virtual
	{
		OFFSET 0.000000 0.000000 0.000000
		CHANNELS 3 Xrotation Yrotation Zrotation
		JOINT Spine
		{
			OFFSET 0.072000 7.257294 -0.789700
			CHANNELS 3 Xrotation Yrotation Zrotation
			JOINT Spine1
			{
				OFFSET 0.000000 12.508769 -0.658067
				CHANNELS 3 Xrotation Yrotation Zrotation
				JOINT Spine1_split
				{
					OFFSET 0.000000 12.508769 -0.658067
					CHANNELS 3 Xrotation Yrotation Zrotation
					JOINT Spine2
					{
						OFFSET 0.000000 12.508769 -0.658067
						CHANNELS 3 Xrotation Yrotation Zrotation
						JOINT Neck_virtual
						{
							OFFSET 0.000000 0.000000 0.000000
							CHANNELS 3 Xrotation Yrotation Zrotation
							JOINT Neck
							{
								OFFSET 0.000000 14.033295 7.520400
								CHANNELS 3 Xrotation Yrotation Zrotation
								JOINT Head
								{
									OFFSET 0.000000 8.198502 5.703100
									CHANNELS 3 Xrotation Yrotation Zrotation
									JOINT HeadTop_End
									{
										OFFSET 0.000000 17.760803 13.332701
										CHANNELS 3 Xrotation Yrotation Zrotation
										End Site
										{
											OFFSET 0 0 0
										}
									}
								}
							}
						}
						JOINT LeftShoulder_virtual
						{
							OFFSET 0.000000 0.000000 0.000000
							CHANNELS 3 Xrotation Yrotation Zrotation
							JOINT LeftShoulder
							{
								OFFSET 6.292450 5.785301 -0.669000
								CHANNELS 3 Xrotation Yrotation Zrotation
								JOINT LeftShoulder_split
								{
									OFFSET 6.292450 5.785301 -0.669000
									CHANNELS 3 Xrotation Yrotation Zrotation
									JOINT LeftArm
									{
										OFFSET 13.907140 -6.093903 1.965100
										CHANNELS 3 Xrotation Yrotation Zrotation
										JOINT LeftForeArm
										{
											OFFSET 34.140198 0.000000 0.000000
											CHANNELS 3 Xrotation Yrotation Zrotation
											JOINT LeftHand
											{
												OFFSET 40.960209 0.000000 0.000000
												CHANNELS 3 Xrotation Yrotation Zrotation
												End Site
												{
													OFFSET 0 0 0
												}
											}
										}
									}
								}
							}
						}
						JOINT RightShoulder_virtual
						{
							OFFSET 0.000000 0.000000 0.000000
							CHANNELS 3 Xrotation Yrotation Zrotation
							JOINT RightShoulder
							{
								OFFSET -6.292450 5.785301 -0.669000
								CHANNELS 3 Xrotation Yrotation Zrotation
								JOINT RightShoulder_split
								{
									OFFSET -6.292450 5.785301 -0.669000
									CHANNELS 3 Xrotation Yrotation Zrotation
									JOINT RightArm
									{
										OFFSET -13.907140 -6.093903 1.965100
										CHANNELS 3 Xrotation Yrotation Zrotation
										JOINT RightForeArm
										{
											OFFSET -34.140198 0.000000 0.000000
											CHANNELS 3 Xrotation Yrotation Zrotation
											JOINT RightHand
											{
												OFFSET -40.960209 0.000000 0.000000
												CHANNELS 3 Xrotation Yrotation Zrotation
												End Site
												{
													OFFSET 0 0 0
												}
											}
										}
									}
								}
							}
						}
					}
				}
			}
		}
	}
}
MOTION
Frames: 9
Frame Time: 0.03333333
6.954785 100.260056 -8.542789 0.000000 0.000000 0.000000 -1.504652 -64.696843 -0.549007 -43.764656 23.367575 38.356911 53.612037 2.907133 0.084384 6.381627 5.426409 -7.551028 -0.797057 0.702401 -2.554453 0.000000 0.000000 0.000000 0.245277 -62.376723 0.782878 -29.147945 -22.540307 -26.816719 38.523821 3.784673 -2.420721 -6.793101 -2.309576 14.547606 -2.809694 0.677954 0.336652 0.000000 0.000000 0.000000 -0.521075 -62.087451 -0.388072 8.056771 1.267533 -5.250904 2.288677 0.875172 -2.626796 1.942019 3.425114 -1.239930 0.000000 0.000000 0.000000 2.542283 -0.095972 -2.831545 0.355030 0.951313 1.893907 0.074278 43.906467 -7.233747 0.000000 0.000000 0.000000 3.327836 0.382616 -2.555668 9.817839 9.823146 1.832950 -0.943727 -1.691515 4.754150 6.760247 -6.064135 -60.451518 -19.395990 -44.244497 -10.480248 0.000000 0.000000 0.000000 2.981795 0.276057 -3.096249 0.579229 2.222919 1.984458 4.074912 2.186373 1.323393 18.901720 20.396237 56.344300 -3.289403 45.378804 2.867472 0.000000 0.000000 0.000000 
6.510452 99.230652 -7.438274 0.000000 0.000000 0.000000 1.925652 -68.261293 3.010630 -43.531394 18.902373 35.389399 52.402168 1.056759 1.191581 4.985125 1.775660 -10.244295 -1.123933 0.475552 -1.357182 0.000000 0.000000 0.000000 3.575943 -66.861801 4.364129 -31.398253 -19.836099 -26.630619 38.303253 5.342307 -2.636218 -7.437659 -1.072789 15.822618 -1.613955 1.021504 -0.558270 0.000000 0.000000 0.000000 2.322271 -66.789579 2.710111 8.181791 1.613615 -6.522364 1.991571 1.534762 -3.308126 1.190409 2.371210 -0.185806 0.000000 0.000000 0.000000 2.362753 0.394458 -3.488236 0.762098 1.356350 1.638250 -0.077735 47.283398 -6.972189 0.000000 0.000000 0.000000 2.890996 0.758071 -3.272695 8.472542 9.083805 -0.611458 0.073647 -0.024236 4.993131 -1.722439 0.648422 -56.295597 -13.840534 -41.224259 -6.109174 0.000000 0.000000 0.000000 2.477826 0.667741 -3.650950 0.155838 1.787046 1.956919 3.350506 3.416852 1.709439 17.373389 18.579178 58.955283 -4.421860 37.670884 3.478168 0.000000 0.000000 0.000000 
6.108232 98.279518 -6.151611 0.000000 0.000000 0.000000 6.504824 -71.272648 7.667342 -42.977036 15.163611 31.970442 50.144182 -1.070533 2.034171 2.393179 -0.911160 -12.878482 -1.972342 0.179990 -0.043790 0.000000 0.000000 0.000000 7.485008 -70.763628 8.605540 -33.391022 -16.373594 -26.243566 38.893638 6.568271 -2.961419 -7.576283 -0.350830 16.554031 -1.264967 1.051552 -0.675703 0.000000 0.000000 0.000000 5.933335 -70.729382 6.459719 8.571298 1.736232 -7.679566 1.993633 2.002097 -3.852619 0.754342 1.582313 0.423827 0.000000 0.000000 0.000000 2.290411 0.803811 -4.037354 0.824007 1.707998 1.528208 -1.017526 50.606238 -6.524609 0.000000 0.000000 0.000000 2.623823 1.065522 -3.878620 7.209125 8.199467 -2.561692 1.226644 1.422042 5.277218 -9.110075 6.474909 -52.019831 -9.892258 -40.619087 -3.454341 0.000000 0.000000 0.000000 2.277665 1.012935 -4.074277 -0.120546 1.770336 2.126276 3.155089 4.660283 1.569271 16.077753 15.932871 60.780815 -5.616154 31.174677 4.261982 0.000000 0.000000 0.000000 
5.762027 97.455414 -4.735714 0.000000 0.000000 0.000000 11.141300 -73.339443 12.323367 -42.051982 12.611616 28.741340 47.446087 -2.534617 2.305117 -1.106054 -1.581619 -14.476318 -2.544945 0.007837 0.682851 0.000000 0.000000 0.000000 11.098520 -73.659219 12.564839 -34.800883 -13.203191 -26.047176 39.816192 7.471113 -3.322673 -7.396327 0.050885 17.109472 -1.395297 0.836774 -0.188346 0.000000 0.000000 0.000000 9.038774 -73.385492 9.738222 9.244897 1.653521 -8.514226 2.342739 2.241118 -4.173726 0.895549 0.992443 1.085589 0.000000 0.000000 0.000000 2.410816 1.096694 -4.398337 0.437397 1.982004 1.525578 -2.757239 53.589671 -5.879918 0.000000 0.000000 0.000000 2.641750 1.300192 -4.287366 6.130593 7.045868 -4.218805 2.393665 2.140012 5.411287 -15.138804 11.059482 -48.041877 -7.009100 -41.595316 -1.806776 0.000000 0.000000 0.000000 2.432224 1.267774 -4.335249 -0.213163 2.156358 2.508074 3.456162 5.490602 1.115160 15.488142 13.044183 61.133014 -6.896408 26.982775 5.199619 0.000000 0.000000 0.000000 
5.516705 96.899223 -3.156971 0.000000 0.000000 0.000000 14.596599 -74.512193 15.624401 -40.962441 11.155704 26.313387 45.049189 -3.044414 2.002478 -4.168917 -0.411985 -15.263104 -1.995101 0.084869 0.382971 0.000000 0.000000 0.000000 13.439703 -75.443394 15.075042 -35.244719 -11.273237 -26.379055 40.219077 8.138993 -3.634819 -7.243862 0.469454 17.869926 -1.489844 0.526831 0.505678 0.000000 0.000000 0.000000 10.858006 -74.936533 11.699936 10.082962 1.419836 -8.869170 2.974684 2.264834 -4.244283 0.764714 0.855169 1.280809 0.000000 0.000000 0.000000 2.773091 1.239406 -4.517474 -0.292067 2.193440 1.546297 -5.017790 55.929786 -5.175877 0.000000 0.000000 0.000000 2.961783 1.435852 -4.464723 5.279028 5.690586 -5.755600 2.880472 1.604242 5.187941 -19.381483 14.529385 -44.696854 -5.068407 -43.073994 -0.829549 0.000000 0.000000 0.000000 2.894390 1.403114 -4.396221 -0.141430 2.764474 3.155813 4.166448 5.612145 0.188051 15.523435 10.248565 60.297532 -8.330997 25.716277 6.329525 0.000000 0.000000 0.000000 
5.300266 96.781197 -1.938614 0.000000 0.000000 0.000000 15.850803 -74.824886 16.622164 -40.063974 10.300220 24.828515 43.447663 -3.218190 1.594243 -5.364878 1.544201 -16.240631 -1.147882 0.351556 -0.619969 0.000000 0.000000 0.000000 14.003343 -76.000806 15.529079 -34.641937 -10.923841 -27.237951 39.494469 8.693984 -3.872488 -7.309440 1.023095 19.126650 -1.339549 0.247479 1.028301 0.000000 0.000000 0.000000 11.028684 -75.363693 11.978402 10.919712 1.075075 -8.738433 3.770779 2.119488 -4.098325 0.850797 1.039633 1.102347 0.000000 0.000000 0.000000 3.362737 1.224950 -4.395961 -1.240894 2.328208 1.519967 -7.481507 57.551577 -4.528544 0.000000 0.000000 0.000000 3.529553 1.465868 -4.409279 4.643463 4.134346 -7.268107 2.468038 0.490524 4.553305 -22.302635 17.157645 -42.240861 -3.715264 -44.303954 -0.216823 0.000000 0.000000 0.000000 3.601330 1.417271 -4.264475 0.061275 3.370460 3.914625 4.941450 5.218898 -0.790905 15.939247 7.450277 58.888907 -10.008140 27.054553 7.713799 0.000000 0.000000 0.000000 
4.979361 97.135178 -0.842991 0.000000 0.000000 0.000000 15.072605 -74.412876 15.620436 -39.295257 10.038813 24.166150 42.500381 -3.797946 1.392667 -4.998803 3.012005 -17.446794 -1.273614 0.549257 -1.273270 0.000000 0.000000 0.000000 13.177341 -75.549405 14.442215 -33.266580 -12.097060 -28.328254 37.708692 9.150541 -4.017886 -7.496330 1.647616 20.843378 -1.193064 0.088789 1.141319 0.000000 0.000000 0.000000 10.200121 -74.772745 11.199539 11.566268 0.689772 -8.226188 4.561369 1.889262 -3.828461 0.719747 1.464881 0.560750 0.000000 0.000000 0.000000 4.107036 1.074763 -4.108171 -2.193558 2.401394 1.439632 -9.806313 58.387360 -3.970047 0.000000 0.000000 0.000000 4.180306 1.397295 -4.193373 4.148726 2.478808 -8.788390 1.381314 -0.866464 4.258474 -24.453100 19.461559 -40.398069 -2.753925 -45.141383 0.141293 0.000000 0.000000 0.000000 4.378586 1.317119 -4.008577 0.381319 3.788007 4.893971 5.584839 4.659351 -1.464594 16.435173 4.788197 57.709457 -11.840497 30.032519 9.307337 0.000000 0.000000 0.000000 
4.619390 97.924858 0.003998 0.000000 0.000000 0.000000 13.707611 -73.403674 14.089651 -38.647878 10.518738 24.077496 41.334088 -4.919730 1.430347 -4.111214 3.418380 -18.367048 -2.053051 0.542969 -1.256960 0.000000 0.000000 0.000000 11.549797 -74.408060 12.624504 -31.619934 -14.241430 -29.403999 35.347984 9.415656 -4.135268 -7.739691 2.165317 22.683137 -1.325015 0.059302 0.872850 0.000000 0.000000 0.000000 9.719829 -73.540811 10.661519 11.985249 0.301781 -7.535439 5.194679 1.632807 -3.551882 0.443935 2.146138 -0.227310 0.000000 0.000000 0.000000 4.817978 0.843633 -3.764487 -2.938923 2.280959 1.438917 -11.766134 58.426763 -3.377811 0.000000 0.000000 0.000000 4.728115 1.265793 -3.897209 3.730261 0.848993 -10.216579 0.259891 -2.051113 4.624449 -26.824571 21.510622 -38.937419 -1.860795 -45.641616 0.429681 0.000000 0.000000 0.000000 5.067099 1.137250 -3.722972 0.783778 3.994648 6.082818 6.108782 4.524057 -1.653048 16.859359 2.302356 57.390275 -13.712674 33.529262 11.027120 0.000000 0.000000 0.000000 
4.162763 99.006020 0.322102 0.000000 0.000000 0.000000 12.269642 -71.858159 12.608389 -38.312235 11.539664 24.189528 39.567207 -6.580334 1.693528 -3.490844 2.765967 -18.905059 -2.687708 0.360500 -0.749935 0.000000 0.000000 0.000000 9.798784 -72.776103 10.938235 -30.159322 -16.671676 -30.163850 33.018138 9.257818 -4.216072 -7.998117 2.244417 24.013502 -1.631175 0.108702 0.443399 0.000000 0.000000 0.000000 9.730965 -71.681019 10.519830 12.237276 -0.073769 -6.839714 5.609930 1.394544 -3.353765 0.541416 2.687680 -0.633784 0.000000 0.000000 0.000000 5.321674 0.581250 -3.459580 -3.447168 1.902102 1.645713 -13.287682 57.700864 -2.608795 0.000000 0.000000 0.000000 5.058354 1.093720 -3.603439 3.363046 -0.606736 -11.368371 -0.637900 -3.066311 5.122975 -29.688281 23.500475 -37.587914 -0.955698 -45.995689 0.635096 0.000000 0.000000 0.000000 5.547657 0.887180 -3.520791 1.250238 4.017098 7.317766 6.446174 5.044945 -1.353080 17.155516 0.073042 57.951983 -15.365176 36.516486 12.621689 0.000000 0.000000 0.000000 
